# xmcd
#
# Track frame offsets:
#	150
#	15070
#	32631
#	49387
#	64487
#	82491
#	95774
#	103966
#	120653
#	137268
#	148778
#	163545
#
# Disc length: 2536 seconds
#
# Revision: 1
# Processed by: cddbd v1.5.2PL0 Copyright (c) Steve Scherf et al.
# Submitted via: audiograbber 1.83.01
#
DISCID=a909e60c
DTITLE=Bill Wellington - Radio Woof Presents Forbidden Folklore!
DYEAR=1900
DGENRE=
TTITLE0=Forbidden Folklore
TTITLE1=Spooky, Gross Stuff/Cluck Old Hen
TTITLE2=Fowl Murder/Oh How He Lied
TTITLE3=Dark, Dark Rover
TTITLE4=Cafeteria Food
TTITLE5=The Marriage of Sir Gawin
TTITLE6=Let's Dance
TTITLE7=The Big Toe/This Little Piggy
TTITLE8=Peter the Weather Poet/Eenie-Meenie
TTITLE9=Cuffy/ Iko Woof
TTITLE10=Wicked John
TTITLE11=Shaking Down the Acorns
EXTD=
EXTT0=
EXTT1=
EXTT2=
EXTT3=
EXTT4=
EXTT5=
EXTT6=
EXTT7=
EXTT8=
EXTT9=
EXTT10=
EXTT11=
PLAYORDER=
